Poster: 
http://www.hindustantimes.com/Images/Popup/2012/9/JTHJ-poster.jpg

Info:

Format : Matroska
Format version : Version 2
File size : 705 MiB
Duration : 2h 35mn
Overall bit rate : 635 Kbps
Encoded date : UTC 2012-11-22 16:37:18
Writing application : mkvmerge v5.6.0 ('Kenya Kane') built on May 27 2012 16:44:04
Writing library : libebml v1.2.3 + libmatroska v1.3.0

Video
ID : 1
Format : AVC
Format/Info : Advanced Video Codec
Format profile : High@L3.0
Format settings, CABAC : Yes
Format settings, ReFrames : 4 frames
Muxing mode : Header stripping
Codec ID : V_MPEG4/ISO/AVC
Duration : 2h 35mn
Bit rate : 570 Kbps
Width : 720 pixels
Height : 320 pixels
Display aspect ratio : 2.25:1
Frame rate : 23.976 fps
Color space : YUV
Chroma subsampling : 4:2:0
Bit depth : 8 bits
Scan type : Progressive
Bits/(Pixel*Frame) : 0.103
Stream size : 620 MiB (88%)
Title : ToM-ExD
Writing library : x264 core 125 r2200 999b753
Language : Hindi
Default : Yes
Forced : No

Audio
ID : 2
Format : AC-3
Format/Info : Audio Coding 3
Mode extension : CM (complete main)
Format settings, Endianness : Big
Muxing mode : Header stripping
Codec ID : A_AC3
Duration : 2h 35mn
Bit rate mode : Constant
Bit rate : 64.0 Kbps
Channel(s) : 2 channels
Channel positions : Front: L R
Sampling rate : 44.1 KHz
Bit depth : 16 bits
Compression mode : Lossy
Stream size : 71.1 MiB (10%)
Title : Hindi [ToM-ExD]
Language : Hindi
Default : Yes
Forced : No

Screens: 
http://imgr.us/images/gjggnqo5874ahee7bsod.jpg 
http://imgr.us/images/c2yrepn618ome3n5efiq.jpg 
http://imgr.us/images/7yvqudfwp2bggtujeof3.png 
http://imgr.us/images/xy6sn2slzzpey8ow9r8.png 
http://imgr.us/images/tjsuk5fgdjpcjuo86qa.png